# xmcd CD database file
#
# Track frame offsets:
#	150
#	16164
#	36062
#	58140
#	84350
#	103668
#	120614
#	139557
#	153433
#	169419
#	188270
#	209189
#
# Disc length: 3093 seconds
#
# Revision: 0
# Processed by: cddbd v1.5.1PL2 Copyright (c) Steve Scherf et al.
# Submitted via: CDex 1.51
#
DISCID=9b0c130c
DTITLE=Illinois Slim - 2nd Time Around
DYEAR=2003
DGENRE=Blues
TTITLE0=Trouble Up In Here
TTITLE1=The Second Time Around
TTITLE2=The Only Thing That I Fear
TTITLE3=These Blues
TTITLE4=One Day
TTITLE5=Just Around The Corner
TTITLE6=Ain't Gonna Lie
TTITLE7=I Don't Remember
TTITLE8=See You Again
TTITLE9=Somebody Have Mercy
TTITLE10=Honey Brown
TTITLE11=Slim's Groove
EXTD=YEAR: 2003
EXTT0=
EXTT1=
EXTT2=
EXTT3=
EXTT4=
EXTT5=
EXTT6=
EXTT7=
EXTT8=
EXTT9=
EXTT10=
EXTT11=
PLAYORDER=
